%FSLAX34Y34*%
%MOMM*%
%LNCOPPER_TOP*%
G71*
G01*
%ADD10C, 0.200*%
%ADD11C, 0.500*%
%ADD12C, 0.698*%
%ADD13C, 0.400*%
%ADD14C, 1.000*%
%ADD15C, 0.300*%
%ADD16C, 0.600*%
%ADD17C, 0.635*%
%ADD18C, 0.191*%
%ADD19C, 0.270*%
%LPD*%
G54D10*
X274241Y334962D02*
X274241Y224631D01*
X385366Y224631D01*
X385366Y334962D01*
X274241Y334962D01*
G54D10*
X282178Y312341D02*
X282178Y320675D01*
X288528Y327025D01*
X377428Y327025D01*
X377428Y239316D01*
X370681Y232569D01*
X288528Y232569D01*
X282178Y238919D01*
X282178Y312341D01*
G54D10*
G75*
G01X263525Y348456D02*
G03X263525Y348456I-3175J0D01*
G01*
G54D10*
G75*
G01X267097Y348456D02*
G03X267097Y348456I-6747J0D01*
G01*
G54D10*
G75*
G01X265509Y348456D02*
G03X265509Y348456I-5159J0D01*
G01*
G54D11*
X274241Y334962D02*
X264716Y344488D01*
G54D10*
G75*
G01X276225Y373856D02*
G03X276225Y373856I-3175J0D01*
G01*
G54D10*
G75*
G01X279797Y373856D02*
G03X279797Y373856I-6747J0D01*
G01*
G54D10*
G75*
G01X278209Y373856D02*
G03X278209Y373856I-5159J0D01*
G01*
G54D11*
X286941Y360362D02*
X277416Y369888D01*
G54D10*
G75*
G01X309166Y389334D02*
G03X309166Y389334I-3175J0D01*
G01*
G54D10*
G75*
G01X312738Y389334D02*
G03X312738Y389334I-6747J0D01*
G01*
G54D10*
G75*
G01X311150Y389334D02*
G03X311150Y389334I-5159J0D01*
G01*
G54D11*
X319881Y375841D02*
X310356Y385366D01*
G54D10*
G75*
G01X356306Y389334D02*
G03X356306Y389334I-3176J0D01*
G01*
G54D10*
G75*
G01X359878Y389334D02*
G03X359878Y389334I-6748J0D01*
G01*
G54D10*
G75*
G01X358290Y389334D02*
G03X358290Y389334I-5160J0D01*
G01*
G54D11*
X339240Y375841D02*
X348765Y385366D01*
G54D10*
G75*
G01X389643Y374253D02*
G03X389643Y374253I-3175J0D01*
G01*
G54D10*
G75*
G01X393215Y374253D02*
G03X393215Y374253I-6747J0D01*
G01*
G54D10*
G75*
G01X391627Y374253D02*
G03X391627Y374253I-5159J0D01*
G01*
G54D11*
X372578Y360759D02*
X382103Y370284D01*
G54D10*
G75*
G01X402431Y348456D02*
G03X402431Y348456I-3175J0D01*
G01*
G54D10*
G75*
G01X406003Y348456D02*
G03X406003Y348456I-6747J0D01*
G01*
G54D10*
G75*
G01X404415Y348456D02*
G03X404415Y348456I-5159J0D01*
G01*
G54D11*
X385366Y334962D02*
X394891Y344488D01*
G54D10*
G75*
G01X428140Y336550D02*
G03X428140Y336550I-3175J0D01*
G01*
G54D10*
G75*
G01X431712Y336550D02*
G03X431712Y336550I-6747J0D01*
G01*
G54D10*
G75*
G01X430124Y336550D02*
G03X430124Y336550I-5159J0D01*
G01*
G54D11*
X411074Y323056D02*
X420600Y332581D01*
G54D10*
G75*
G01X443221Y302816D02*
G03X443221Y302816I-3175J0D01*
G01*
G54D10*
G75*
G01X446793Y302816D02*
G03X446793Y302816I-6747J0D01*
G01*
G54D10*
G75*
G01X445205Y302816D02*
G03X445205Y302816I-5159J0D01*
G01*
G54D11*
X426156Y289322D02*
X435681Y298847D01*
G54D10*
G75*
G01X442824Y257205D02*
G03X442824Y257205I-3175J0D01*
G01*
G54D10*
G75*
G01X446396Y257205D02*
G03X446396Y257205I-6747J0D01*
G01*
G54D10*
G75*
G01X444808Y257205D02*
G03X444808Y257205I-5159J0D01*
G01*
G54D11*
X425759Y270700D02*
X435284Y261175D01*
G54D10*
G75*
G01X428140Y223074D02*
G03X428140Y223074I-3175J0D01*
G01*
G54D10*
G75*
G01X431712Y223074D02*
G03X431712Y223074I-6747J0D01*
G01*
G54D10*
G75*
G01X430124Y223074D02*
G03X430124Y223074I-5159J0D01*
G01*
G54D11*
X411074Y236568D02*
X420600Y227043D01*
G54D10*
G75*
G01X402431Y211137D02*
G03X402431Y211137I-3175J0D01*
G01*
G54D10*
G75*
G01X406003Y211137D02*
G03X406003Y211137I-6747J0D01*
G01*
G54D10*
G75*
G01X404415Y211137D02*
G03X404415Y211137I-5159J0D01*
G01*
G54D11*
X385366Y224631D02*
X394891Y215106D01*
G54D10*
G75*
G01X390040Y185371D02*
G03X390040Y185371I-3175J0D01*
G01*
G54D10*
G75*
G01X393612Y185371D02*
G03X393612Y185371I-6747J0D01*
G01*
G54D10*
G75*
G01X392024Y185371D02*
G03X392024Y185371I-5159J0D01*
G01*
G54D11*
X372974Y198865D02*
X382500Y189340D01*
G54D10*
G75*
G01X356306Y170290D02*
G03X356306Y170290I-3176J0D01*
G01*
G54D10*
G75*
G01X359878Y170290D02*
G03X359878Y170290I-6748J0D01*
G01*
G54D10*
G75*
G01X358290Y170290D02*
G03X358290Y170290I-5160J0D01*
G01*
G54D11*
X339240Y183784D02*
X348765Y174259D01*
G54D10*
G75*
G01X309958Y170290D02*
G03X309958Y170290I-3175J0D01*
G01*
G54D10*
G75*
G01X313530Y170290D02*
G03X313530Y170290I-6747J0D01*
G01*
G54D10*
G75*
G01X311942Y170290D02*
G03X311942Y170290I-5159J0D01*
G01*
G54D11*
X320674Y183784D02*
X311149Y174259D01*
G54D10*
G75*
G01X276224Y185371D02*
G03X276224Y185371I-3175J0D01*
G01*
G54D10*
G75*
G01X279796Y185371D02*
G03X279796Y185371I-6747J0D01*
G01*
G54D10*
G75*
G01X278208Y185371D02*
G03X278208Y185371I-5159J0D01*
G01*
G54D11*
X286940Y198865D02*
X277415Y189340D01*
G54D10*
G75*
G01X263525Y211137D02*
G03X263525Y211137I-3175J0D01*
G01*
G54D10*
G75*
G01X267097Y211137D02*
G03X267097Y211137I-6747J0D01*
G01*
G54D10*
G75*
G01X265509Y211137D02*
G03X265509Y211137I-5159J0D01*
G01*
G54D11*
X274241Y224631D02*
X264716Y215106D01*
G54D10*
G75*
G01X238124Y223471D02*
G03X238124Y223471I-3175J0D01*
G01*
G54D10*
G75*
G01X241696Y223471D02*
G03X241696Y223471I-6747J0D01*
G01*
G54D10*
G75*
G01X240108Y223471D02*
G03X240108Y223471I-5159J0D01*
G01*
G54D11*
X248840Y236965D02*
X239315Y227440D01*
G54D10*
G75*
G01X223043Y256412D02*
G03X223043Y256412I-3175J0D01*
G01*
G54D10*
G75*
G01X226615Y256412D02*
G03X226615Y256412I-6747J0D01*
G01*
G54D10*
G75*
G01X225027Y256412D02*
G03X225027Y256412I-5159J0D01*
G01*
G54D11*
X233759Y269906D02*
X224234Y260381D01*
G54D10*
G75*
G01X223043Y303212D02*
G03X223043Y303212I-3175J0D01*
G01*
G54D10*
G75*
G01X226615Y303212D02*
G03X226615Y303212I-6747J0D01*
G01*
G54D10*
G75*
G01X225027Y303212D02*
G03X225027Y303212I-5159J0D01*
G01*
G54D11*
X233759Y289718D02*
X224234Y299243D01*
G54D10*
G75*
G01X237330Y336550D02*
G03X237330Y336550I-3175J0D01*
G01*
G54D10*
G75*
G01X240902Y336550D02*
G03X240902Y336550I-6747J0D01*
G01*
G54D10*
G75*
G01X239314Y336550D02*
G03X239314Y336550I-5159J0D01*
G01*
G54D11*
X248046Y323055D02*
X238521Y332580D01*
G54D10*
G75*
G01X247650Y304800D02*
G03X247650Y304800I-3175J0D01*
G01*
G54D10*
G75*
G01X251222Y304800D02*
G03X251222Y304800I-6747J0D01*
G01*
G54D10*
G75*
G01X249634Y304800D02*
G03X249634Y304800I-5159J0D01*
G01*
G54D11*
X250428Y304800D02*
X277416Y304800D01*
G54D10*
G75*
G01X248047Y254794D02*
G03X248047Y254794I-3175J0D01*
G01*
G54D10*
G75*
G01X251619Y254794D02*
G03X251619Y254794I-6747J0D01*
G01*
G54D10*
G75*
G01X250031Y254794D02*
G03X250031Y254794I-5159J0D01*
G01*
G54D11*
X250825Y254794D02*
X277812Y254794D01*
G54D10*
G75*
G01X308012Y194878D02*
G03X308012Y194878I-3175J0D01*
G01*
G54D10*
G75*
G01X311584Y194878D02*
G03X311584Y194878I-6747J0D01*
G01*
G54D10*
G75*
G01X309996Y194878D02*
G03X309996Y194878I-5159J0D01*
G01*
G54D11*
X304837Y200830D02*
X304837Y227818D01*
G54D10*
G75*
G01X358019Y195274D02*
G03X358019Y195274I-3175J0D01*
G01*
G54D10*
G75*
G01X361591Y195274D02*
G03X361591Y195274I-6747J0D01*
G01*
G54D10*
G75*
G01X360003Y195274D02*
G03X360003Y195274I-5159J0D01*
G01*
G54D11*
X354844Y201227D02*
X354844Y228215D01*
G54D10*
G75*
G01X417935Y254843D02*
G03X417935Y254843I-3175J0D01*
G01*
G54D10*
G75*
G01X421507Y254843D02*
G03X421507Y254843I-6747J0D01*
G01*
G54D10*
G75*
G01X419919Y254843D02*
G03X419919Y254843I-5159J0D01*
G01*
G54D11*
X408807Y254843D02*
X381819Y254843D01*
G54D10*
G75*
G01X417935Y304849D02*
G03X417935Y304849I-3175J0D01*
G01*
G54D10*
G75*
G01X421507Y304849D02*
G03X421507Y304849I-6747J0D01*
G01*
G54D10*
G75*
G01X419919Y304849D02*
G03X419919Y304849I-5159J0D01*
G01*
G54D11*
X408807Y304849D02*
X381819Y304849D01*
G54D10*
G75*
G01X307566Y364369D02*
G03X307566Y364369I-3175J0D01*
G01*
G54D10*
G75*
G01X311138Y364369D02*
G03X311138Y364369I-6747J0D01*
G01*
G54D10*
G75*
G01X309550Y364369D02*
G03X309550Y364369I-5159J0D01*
G01*
G54D11*
X304391Y358416D02*
X304391Y331429D01*
G54D10*
G75*
G01X357969Y364766D02*
G03X357969Y364766I-3175J0D01*
G01*
G54D10*
G75*
G01X361541Y364766D02*
G03X361541Y364766I-6747J0D01*
G01*
G54D10*
G75*
G01X359953Y364766D02*
G03X359953Y364766I-5159J0D01*
G01*
G54D11*
X354794Y358813D02*
X354794Y331826D01*
G54D11*
X286941Y360362D02*
X286941Y332581D01*
X287734Y331788D01*
G54D11*
X319881Y375841D02*
X319881Y332978D01*
X320675Y332184D01*
G54D11*
X339240Y375841D02*
X339240Y332272D01*
X339328Y332184D01*
G54D11*
X372578Y360759D02*
X372578Y333066D01*
X373459Y332184D01*
G54D11*
X411074Y323056D02*
X381000Y323056D01*
X380603Y323453D01*
G54D11*
X426156Y289322D02*
X382191Y289322D01*
G54D11*
X425759Y270700D02*
X384144Y270700D01*
X381794Y273050D01*
G54D11*
X411074Y236568D02*
X384938Y236568D01*
X382191Y239316D01*
G54D11*
X372974Y198865D02*
X372974Y227894D01*
X372666Y228203D01*
G54D11*
X339240Y183784D02*
X339240Y227497D01*
X338534Y228203D01*
G54D11*
X320674Y183784D02*
X320674Y227409D01*
X321072Y227806D01*
G54D11*
X286940Y198865D02*
X286941Y228203D01*
G54D11*
X248840Y236965D02*
X275065Y236965D01*
X277019Y238919D01*
G54D11*
X233759Y269906D02*
X276194Y269906D01*
X276622Y269478D01*
G54D11*
X233759Y289718D02*
X276224Y289718D01*
X277019Y290512D01*
G54D11*
X248046Y323055D02*
X276623Y323055D01*
X277019Y322659D01*
G36*
X274241Y334962D02*
X274241Y328612D01*
X282178Y320675D01*
X288528Y327025D01*
X377428Y327025D01*
X385366Y334962D01*
X274241Y334962D01*
G37*
G54D10*
X274241Y334962D02*
X274241Y328612D01*
X282178Y320675D01*
X288528Y327025D01*
X377428Y327025D01*
X385366Y334962D01*
X274241Y334962D01*
G36*
X282178Y320675D02*
X274241Y328612D01*
X274241Y224631D01*
X385366Y224631D01*
X385366Y334962D01*
X377428Y327025D01*
X377428Y239316D01*
X370681Y232569D01*
X288528Y232569D01*
X282178Y238919D01*
X282178Y320675D01*
G37*
G54D10*
X282178Y320675D02*
X274241Y328612D01*
X274241Y224631D01*
X385366Y224631D01*
X385366Y334962D01*
X377428Y327025D01*
X377428Y239316D01*
X370681Y232569D01*
X288528Y232569D01*
X282178Y238919D01*
X282178Y320675D01*
G54D12*
X307173Y260796D02*
X321839Y299907D01*
X336506Y260796D01*
G54D12*
X313039Y275462D02*
X330639Y275462D01*
G54D12*
X350195Y260796D02*
X350195Y299907D01*
G54D10*
G75*
G01X395313Y75206D02*
G03X256357Y75206I-69478J-8531D01*
G01*
G54D10*
X256357Y75206D02*
X395313Y75206D01*
G54D10*
G75*
G01X298847Y99219D02*
G03X298847Y99219I-5953J0D01*
G01*
G54D10*
G75*
G01X363934Y99219D02*
G03X363934Y99219I-5953J0D01*
G01*
G54D11*
G75*
G01X370647Y150935D02*
G03X357879Y128594I210378J-135060D01*
G01*
G54D11*
G75*
G01X281679Y149692D02*
G03X294447Y127351I223146J112719D01*
G01*
G54D10*
G75*
G01X175795Y226302D02*
G03X162035Y246896I-27760J-3655D01*
G01*
G54D10*
G75*
G01X175327Y229059D02*
G03X199243Y207675I24301J3113D01*
G01*
G54D10*
G75*
G01X199243Y210453D02*
G03X178490Y237499I-28000J0D01*
G01*
G54D10*
G75*
G01X204214Y208360D02*
G03X176214Y236360I-28000J0D01*
G01*
G54D10*
G75*
G01X208182Y219472D02*
G03X180182Y247472I-28000J0D01*
G01*
G54D10*
X180182Y247472D02*
X161186Y247472D01*
X161132Y247418D01*
X161300Y247418D01*
X161592Y247126D01*
G54D10*
G75*
G01X183383Y247231D02*
G03X160960Y247329I-11689J-109377D01*
G01*
G54D10*
G75*
G01X204134Y208146D02*
G03X208267Y221456I-19367J13310D01*
G01*
G54D10*
X199243Y210453D02*
X199243Y207675D01*
G54D10*
X165497Y246459D02*
X176609Y246459D01*
X177403Y245666D01*
X167084Y245666D01*
X166688Y245269D01*
X175816Y245269D01*
X177006Y244078D01*
X167878Y244078D01*
X175419Y244078D01*
X177006Y242491D01*
X168672Y242491D01*
X176212Y242491D01*
X177403Y241300D01*
X170656Y241300D01*
X170259Y240903D01*
X176609Y240903D01*
X177403Y240109D01*
X172244Y240109D01*
X171450Y239316D01*
X176674Y239316D01*
X178490Y237499D01*
X173267Y237499D01*
X172641Y238125D01*
X172641Y237728D01*
X174625Y235744D01*
X179388Y235744D01*
X179784Y235347D01*
X175419Y235347D01*
X174228Y234156D01*
X184150Y234156D01*
X184547Y233759D01*
X176212Y233759D01*
X175022Y232569D01*
X187325Y232569D01*
X189309Y230584D01*
X175816Y230584D01*
X175816Y229791D01*
X177006Y228600D01*
X189309Y228600D01*
X190103Y229394D01*
X191691Y227806D01*
X176609Y227806D01*
X176212Y227409D01*
X176212Y227012D01*
X177403Y225822D01*
X192484Y225822D01*
X192881Y226219D01*
X192881Y225822D01*
X193675Y225028D01*
X193675Y225822D01*
X191691Y227806D01*
X191691Y227012D01*
X193675Y225028D01*
X178594Y225028D01*
X177800Y224234D01*
X177800Y223441D01*
X178197Y223044D01*
X194072Y223044D01*
X194469Y223441D01*
X195659Y222250D01*
X178991Y222250D01*
X178594Y221853D01*
X178594Y221456D01*
X179388Y220662D01*
X196056Y220662D01*
X196056Y219472D01*
X196453Y219075D01*
X180579Y219075D01*
X180182Y219472D01*
X180182Y219074D01*
X181769Y217488D01*
X196850Y217488D01*
X196850Y216297D01*
X197247Y215900D01*
X182562Y215900D01*
X183356Y215900D01*
X184944Y214312D01*
X197644Y214312D01*
X197644Y213122D01*
X198041Y212725D01*
X186531Y212725D01*
X186134Y213122D01*
X187722Y213122D01*
X189706Y211138D01*
X198041Y211138D01*
X198041Y209153D01*
X192881Y209153D01*
X192088Y209947D01*
G54D10*
X177403Y245666D02*
X177403Y238586D01*
X178490Y237499D01*
X178490Y246753D01*
X178594Y246856D01*
X179566Y246856D01*
X180182Y247472D01*
X180181Y237728D01*
X181372Y237728D01*
X181769Y237331D01*
X181769Y245666D01*
X181372Y246062D01*
X184547Y246062D01*
X184547Y236934D01*
X184150Y236538D01*
X183753Y236538D01*
X182959Y237331D01*
X182959Y244475D01*
X184944Y244475D01*
X185738Y245269D01*
X185738Y235744D01*
X186134Y235744D01*
X186928Y234950D01*
X186928Y245269D01*
X187722Y245269D01*
X188516Y244475D01*
X188516Y234156D01*
X190103Y234156D01*
X190103Y244078D01*
X189706Y244475D01*
X190897Y244475D01*
X192088Y243284D01*
X192088Y233759D01*
X191294Y232966D01*
X192088Y232966D01*
X192881Y232172D01*
X192881Y242491D01*
X193278Y242888D01*
X193278Y242491D01*
X194469Y241300D01*
X194469Y230981D01*
X194866Y230981D01*
X195659Y230188D01*
X195659Y242094D01*
X197247Y240506D01*
X197247Y228997D01*
X196850Y228600D01*
X197247Y228600D01*
X198041Y227806D01*
X198041Y238522D01*
X198438Y238919D01*
X199628Y237728D01*
X199628Y227409D01*
X198834Y226616D01*
X198834Y226219D01*
X199628Y225425D01*
X199628Y235347D01*
X200819Y236538D01*
X200819Y235347D01*
X201216Y234950D01*
X201216Y225028D01*
X200819Y224631D01*
X200819Y223838D01*
X201612Y223044D01*
X201612Y233759D01*
X202406Y234553D01*
X202406Y221853D01*
X202009Y221456D01*
X202009Y225425D01*
X203994Y227409D01*
X203994Y232172D01*
X203597Y232569D01*
X203597Y230584D01*
X205184Y228997D01*
X205184Y221059D01*
X205581Y220662D01*
X206772Y220662D01*
X206772Y225028D01*
X205978Y225822D01*
X204391Y225822D01*
X203994Y225425D01*
X203994Y219472D01*
X203597Y219075D01*
X203597Y219472D01*
X202803Y220266D01*
X205581Y220266D01*
X206772Y219075D01*
X206772Y213916D01*
X205184Y212328D01*
X205184Y216694D01*
X203994Y217884D01*
X204391Y217884D01*
X205184Y218678D01*
X205184Y216694D01*
X204788Y216694D01*
X203994Y215900D01*
G54D13*
X198256Y207577D02*
X198256Y190017D01*
X198244Y190005D01*
G54D10*
G75*
G01X175128Y191926D02*
G03X187397Y179995I12487J567D01*
G01*
G54D10*
G75*
G01X175100Y195264D02*
G03X170100Y203924I-10000J0D01*
G01*
G54D10*
X175100Y195264D02*
X175100Y191953D01*
X175128Y191926D01*
G54D10*
G75*
G01X187337Y179894D02*
G03X179136Y199693I-28000J0D01*
G01*
G54D10*
G75*
G01X193290Y176719D02*
G03X179290Y200968I-28000J0D01*
G01*
G54D10*
G75*
G01X193506Y187831D02*
G03X176006Y205331I-17500J0D01*
G01*
G54D10*
G75*
G01X176403Y205331D02*
G03X169847Y204057I0J-17500D01*
G01*
G54D10*
G75*
G01X230715Y212518D02*
G03X202689Y196009I-7679J-19007D01*
G01*
G54D10*
G75*
G01X208824Y191948D02*
G03X230754Y212399I1430J20451D01*
G01*
G54D10*
G75*
G01X225394Y208437D02*
G03X208535Y191869I9748J-26781D01*
G01*
G54D10*
G75*
G01X227575Y210805D02*
G03X192461Y176299I11733J-47059D01*
G01*
G54D10*
G75*
G01X193704Y173371D02*
G03X199215Y195472I-22064J17238D01*
G01*
G54D10*
G75*
G01X198049Y191180D02*
G03X196303Y182600I10600J-6624D01*
G01*
G54D10*
X191944Y185303D02*
X191944Y176815D01*
X192461Y176299D01*
X192461Y173426D01*
X192453Y173418D01*
G54D10*
G75*
G01X191652Y175334D02*
G03X180396Y147476I20569J-24513D01*
G01*
G54D10*
G75*
G01X193704Y173371D02*
G03X185529Y153634I23781J-21412D01*
G01*
G54D10*
G75*
G01X180423Y154806D02*
G03X256126Y95660I51642J-11923D01*
G01*
G54D10*
G75*
G01X186217Y159967D02*
G03X233240Y95247I51642J-11922D01*
G01*
G54D10*
G75*
G01X232665Y95216D02*
G03X256272Y100884I0J52000D01*
G01*
G54D10*
X256272Y100884D02*
X256272Y95806D01*
X256126Y95660D01*
G54D10*
X173038Y203200D02*
X176212Y203200D01*
X177006Y203994D01*
X176212Y203994D01*
X174228Y202009D01*
X174625Y202009D01*
X176212Y200422D01*
X175419Y199628D01*
X175419Y200025D01*
X171847Y203597D01*
X179388Y203597D01*
X179388Y199231D01*
X178197Y198041D01*
X178197Y201612D01*
X177800Y202009D01*
X177800Y196850D01*
X177006Y196056D01*
X177006Y202406D01*
X176212Y203200D01*
X176212Y189706D01*
X177006Y188912D01*
X183753Y188912D01*
X184150Y189309D01*
X184150Y190500D01*
X182959Y191691D01*
X182959Y190500D01*
X182562Y190103D01*
X177403Y190103D01*
X177006Y190500D01*
X177006Y194469D01*
X179784Y197247D01*
X179784Y196056D01*
X182562Y193278D01*
X178197Y193278D01*
X178197Y193675D01*
X179388Y194866D01*
X179388Y192484D01*
X178197Y191294D01*
X180975Y191294D01*
X181769Y192088D01*
X181769Y190500D01*
X184944Y187325D01*
X184944Y182959D01*
X186531Y181372D01*
X186531Y183356D01*
X185738Y184150D01*
X185738Y182166D01*
X184944Y181372D01*
X183356Y181372D01*
X181372Y183356D01*
X181372Y183753D01*
X177800Y187325D01*
X183356Y187325D01*
X183356Y182959D01*
X183753Y182562D01*
X183753Y183356D01*
X180975Y186134D01*
X182562Y186134D01*
G54D10*
X179290Y200968D02*
X179290Y201912D01*
X180578Y203200D01*
X182166Y203200D01*
X182959Y202406D01*
X182959Y200819D01*
X182562Y200422D01*
X182166Y200422D01*
X180975Y201612D01*
X184150Y201612D01*
X184944Y200819D01*
X184944Y199628D01*
X184547Y199231D01*
X183753Y199231D01*
X182562Y200422D01*
X183356Y200422D01*
X186134Y197644D01*
X186134Y200025D01*
X186531Y200025D01*
X188516Y198041D01*
X188516Y194866D01*
X188119Y194469D01*
X188119Y195659D01*
X186134Y197644D01*
X188119Y197644D01*
X190103Y195659D01*
X190103Y193675D01*
X191294Y192484D01*
X191294Y194072D01*
X189706Y194072D01*
X188912Y193278D01*
X188912Y192881D01*
X191691Y190103D01*
X191691Y190897D01*
X192088Y191294D01*
X192088Y189250D01*
X193506Y187831D01*
X193506Y182732D01*
X193675Y182562D01*
X193675Y186928D01*
X192484Y188119D01*
G54D10*
X198041Y188119D02*
X198041Y184338D01*
X196303Y182600D01*
X196303Y181222D01*
X195262Y180181D01*
X195262Y178197D01*
X194866Y177800D01*
X194866Y176609D01*
X193675Y175419D01*
G54D10*
X191294Y173831D02*
X191294Y173038D01*
X189706Y171450D01*
X189706Y170656D01*
X188119Y169069D01*
X188119Y168672D01*
X186531Y167084D01*
X188119Y167084D01*
X188119Y165497D01*
X186134Y163512D01*
X184547Y163512D01*
X184547Y165100D01*
X185738Y166291D01*
X186531Y166291D01*
X186928Y165894D01*
X186928Y164306D01*
X186134Y163512D01*
X186134Y165894D01*
X185738Y166291D01*
X185738Y163909D01*
X183356Y161528D01*
X185341Y161528D01*
X185738Y161925D01*
X185738Y159941D01*
X183753Y157956D01*
X183753Y159941D01*
X184150Y160338D01*
X182959Y160338D01*
X182562Y159941D01*
X182562Y157559D01*
X181769Y156766D01*
X184150Y156766D01*
X184547Y157162D01*
X184547Y153194D01*
X183753Y152400D01*
X183753Y155178D01*
X183356Y155575D01*
X182562Y155575D01*
X181769Y154781D01*
X181769Y151606D01*
X182959Y151606D01*
X183753Y152400D01*
X183753Y147241D01*
X182959Y146447D01*
X182959Y148828D01*
X181769Y150019D01*
X181769Y148034D01*
X181769Y150416D01*
X182959Y151606D01*
X182959Y136128D01*
X182166Y135334D01*
X180181Y135334D01*
X180181Y145653D01*
X180975Y146447D01*
X182959Y146447D01*
X182959Y145653D01*
X181769Y144462D01*
X181769Y136922D01*
X183753Y136922D01*
X184150Y137319D01*
X184150Y144066D01*
X183753Y144462D01*
X183753Y137319D01*
X185341Y135731D01*
X185341Y133350D01*
X185738Y132953D01*
X182166Y132953D01*
X181769Y132556D01*
X181769Y133350D01*
X180975Y134144D01*
X183356Y134144D01*
X183753Y134541D01*
X183753Y136922D01*
X183753Y133350D01*
X187325Y129778D01*
X182166Y129778D01*
X182166Y130969D01*
X181769Y131366D01*
X183753Y131366D01*
X184150Y130969D01*
X184150Y130572D01*
X187325Y127397D01*
X187325Y126603D01*
X188119Y125809D01*
X182959Y125809D01*
X182959Y128191D01*
X182562Y128588D01*
X184547Y128588D01*
X185738Y127397D01*
X183753Y127397D01*
X183753Y124222D01*
X184547Y123428D01*
X189706Y123428D01*
X189706Y123825D01*
X188912Y124619D01*
X184944Y124619D01*
X184944Y121047D01*
X185341Y120650D01*
X191691Y120650D01*
X190500Y121841D01*
X186134Y121841D01*
X186134Y118666D01*
X187722Y117078D01*
X192484Y117078D01*
X192881Y117475D01*
X192881Y118269D01*
X191691Y119459D01*
X187722Y119459D01*
X187325Y119062D01*
X187722Y119062D01*
X188516Y118269D01*
X191691Y118269D01*
X195262Y114697D01*
X188516Y114697D01*
X188516Y115094D01*
X187722Y115888D01*
X192088Y115888D01*
X192484Y115491D01*
X193675Y115491D01*
X196850Y112316D01*
X189706Y112316D01*
X189706Y113109D01*
X189309Y113506D01*
X194072Y113506D01*
X194469Y113109D01*
X196056Y113109D01*
X198834Y110331D01*
X191294Y110331D01*
X191294Y110728D01*
X189706Y112316D01*
X189706Y111522D01*
X194469Y106759D01*
X203200Y106759D01*
X202406Y106759D01*
X199628Y109538D01*
X194072Y109538D01*
X193675Y109141D01*
X194469Y109141D01*
X195659Y107950D01*
X199628Y107950D01*
X200025Y107553D01*
X202009Y107553D01*
X204788Y104775D01*
X196850Y104775D01*
X196056Y105569D01*
X196850Y105569D01*
X199231Y103188D01*
X207962Y103188D01*
X206375Y103188D01*
X205581Y103981D01*
X202406Y103981D01*
X200422Y101997D01*
X209947Y101997D01*
X210344Y101600D01*
X202009Y101600D01*
X201216Y100806D01*
X212328Y100806D01*
X214312Y98822D01*
X204391Y98822D01*
X203597Y99616D01*
X205581Y99616D01*
X208359Y96838D01*
X213916Y96838D01*
X215503Y98425D01*
X213122Y98425D01*
X210344Y95647D01*
X212725Y95647D01*
X213916Y94456D01*
X213916Y95250D01*
X216694Y98028D01*
X217488Y98028D01*
X218678Y96838D01*
X217488Y96838D01*
X215106Y94456D01*
X215900Y94456D01*
X217091Y93266D01*
X217091Y93662D01*
X220266Y96838D01*
X220266Y94853D01*
X218281Y92869D01*
X221853Y96441D01*
X221853Y93662D01*
X220662Y92472D01*
X219472Y92472D01*
X222647Y92472D01*
X223044Y92075D01*
X223044Y96441D01*
X223838Y96441D01*
X225028Y95250D01*
X225028Y92869D01*
X224234Y92075D01*
X225425Y92075D01*
X226219Y91281D01*
X226219Y95647D01*
X227806Y95647D01*
X228203Y95250D01*
X228203Y91678D01*
X227806Y91281D01*
X230188Y91281D01*
X230188Y94456D01*
X229791Y94853D01*
X231378Y94853D01*
X232172Y94059D01*
X232172Y91281D01*
X231775Y90884D01*
X233759Y90884D01*
X234156Y91281D01*
X234156Y93662D01*
X233759Y94059D01*
X236538Y94059D01*
X236538Y92472D01*
X235347Y91281D01*
X235347Y92869D01*
X235744Y92869D01*
X237331Y91281D01*
X237331Y94059D01*
X237728Y94456D01*
X239316Y94456D01*
X239316Y92075D01*
X238919Y91678D01*
X240506Y91678D01*
X240903Y92075D01*
X240903Y94456D01*
X242094Y94456D01*
X242491Y94853D01*
X242491Y91678D01*
X243681Y91678D01*
X244475Y92472D01*
X244475Y94853D01*
X244078Y95250D01*
X245666Y95250D01*
X246062Y95647D01*
X246062Y93266D01*
X247650Y93266D01*
X248047Y93662D01*
X248047Y95647D01*
X247650Y96044D01*
X249238Y96044D01*
X249634Y96441D01*
X249634Y94456D01*
X250825Y94456D01*
X251222Y94853D01*
X251222Y97234D01*
X252809Y97234D01*
X254000Y98425D01*
X254397Y98425D01*
X255191Y99219D01*
X255191Y96441D01*
X254794Y96044D01*
X252412Y96044D01*
X252412Y94853D01*
X252412Y95250D01*
X254000Y96838D01*
G54D10*
X202689Y196009D02*
X202689Y197132D01*
X205184Y199628D01*
X205184Y201216D01*
X206375Y202406D01*
X206375Y200819D01*
X206772Y200422D01*
X206772Y200819D01*
X208359Y202406D01*
X208359Y203200D01*
X206772Y204788D01*
X207169Y204788D01*
X208359Y205978D01*
X208359Y205184D01*
X209550Y203994D01*
X206375Y203994D01*
X205978Y203597D01*
X210344Y203597D01*
X211931Y205184D01*
X211931Y207566D01*
X211138Y208359D01*
X210741Y208359D01*
X209153Y206772D01*
X210344Y205581D01*
X210344Y206375D01*
X210741Y206772D01*
X210741Y207566D01*
X212725Y209550D01*
X212725Y206772D01*
X213519Y205978D01*
X213916Y205978D01*
X214709Y206772D01*
X214709Y210344D01*
X213519Y210344D01*
X214709Y210344D01*
X215900Y211534D01*
X215900Y207169D01*
X216297Y207169D01*
X217488Y208359D01*
X217488Y211931D01*
X218678Y211931D01*
X219075Y212328D01*
X219075Y208756D01*
X220266Y209947D01*
X220266Y212725D01*
X221853Y212725D01*
X221853Y210344D01*
X222647Y210344D01*
X223441Y211138D01*
X223441Y213122D01*
X225028Y213122D01*
X225425Y212725D01*
X225425Y211931D01*
X224631Y211138D01*
X225425Y211138D01*
X227012Y212725D01*
X228203Y212725D01*
X229394Y211534D01*
X229394Y209153D01*
X228997Y208756D01*
X228997Y207169D01*
X228203Y206375D01*
X228203Y204788D01*
X227806Y204391D01*
X227806Y203597D01*
X227012Y202803D01*
X227012Y202406D01*
X225822Y201216D01*
X225822Y207566D01*
X228203Y209947D01*
X226905Y209947D01*
X225394Y208437D01*
X225394Y200391D01*
X225028Y200025D01*
X225028Y204788D01*
X228203Y207962D01*
X228203Y206375D01*
X227012Y205184D01*
X225028Y205184D01*
X223838Y206375D01*
X222647Y206375D01*
X221456Y205184D01*
X222250Y205184D01*
X223044Y204391D01*
X224234Y204391D01*
X225028Y205184D01*
X225028Y199231D01*
X224234Y198438D01*
X224234Y204391D01*
X223044Y203200D01*
X223044Y197644D01*
X222250Y197644D01*
X221059Y196453D01*
X221059Y204788D01*
X221456Y205184D01*
X221456Y203597D01*
X221853Y203200D01*
X220662Y203200D01*
X219869Y203994D01*
X219869Y196056D01*
X218678Y194866D01*
X218678Y203200D01*
X218678Y202803D01*
X217488Y201612D01*
X217488Y194866D01*
X217091Y194469D01*
X216297Y194469D01*
X215900Y194072D01*
X215900Y201216D01*
X215900Y200422D01*
X214709Y199231D01*
X214709Y193278D01*
X210741Y193278D01*
X210344Y192881D01*
X210344Y194866D01*
X213916Y198438D01*
X213916Y195262D01*
X213122Y194469D01*
X211931Y194469D01*
X210741Y193278D01*
X210741Y193675D01*
X213122Y196056D01*
G54D10*
X196453Y180181D02*
X196453Y178991D01*
G54D10*
G75*
G01X195217Y183399D02*
G03X190057Y169959I26529J-17894D01*
G01*
G54D10*
X257572Y76597D02*
X393303Y76597D01*
X394097Y77391D01*
X393303Y78184D01*
X259159Y78184D01*
X258366Y78978D01*
X257969Y78978D01*
X257175Y78184D01*
X257175Y78581D01*
X258762Y80169D01*
X393303Y80169D01*
X393303Y81359D01*
X392509Y82153D01*
X259159Y82153D01*
X258762Y81756D01*
X258762Y83741D01*
X259159Y84138D01*
X392509Y84138D01*
X392906Y83741D01*
X392906Y84931D01*
X392112Y85725D01*
X259953Y85725D01*
X259953Y87312D01*
X260350Y87709D01*
X391319Y87709D01*
X391716Y87312D01*
X391716Y88106D01*
X390525Y89297D01*
X261144Y89297D01*
X261144Y90488D01*
X261938Y91281D01*
X390128Y91281D01*
X390128Y92472D01*
X389731Y92869D01*
X359569Y92869D01*
X359172Y92472D01*
X361553Y92472D01*
X363538Y94456D01*
X388938Y94456D01*
X389334Y94059D01*
X389334Y95250D01*
X388541Y96044D01*
X364331Y96044D01*
X363934Y95647D01*
X363934Y96838D01*
X365125Y98028D01*
X387350Y98028D01*
X387747Y97631D01*
X387747Y98028D01*
X386159Y99616D01*
X365522Y99616D01*
X365125Y99219D01*
X365125Y100409D01*
X364728Y100806D01*
X384969Y100806D01*
X385366Y101203D01*
X384175Y102394D01*
X364331Y102394D01*
X363934Y101997D01*
X363934Y102791D01*
X363141Y103584D01*
X383778Y103584D01*
X383778Y104378D01*
X382984Y105172D01*
X360362Y105172D01*
X359569Y105966D01*
X381397Y105966D01*
X381794Y106362D01*
X269081Y106362D01*
X269081Y106759D01*
X269875Y107553D01*
X380603Y107553D01*
X381000Y107950D01*
X379809Y109141D01*
X271462Y109141D01*
X273050Y110728D01*
X379016Y110728D01*
X379412Y110331D01*
X378619Y110331D01*
X376634Y112316D01*
X273844Y112316D01*
X274241Y112316D01*
X275828Y113903D01*
X375841Y113903D01*
X376238Y113506D01*
X374253Y115491D01*
X277019Y115491D01*
X276622Y115094D01*
X277019Y115094D01*
X278606Y116681D01*
X372666Y116681D01*
X373062Y116284D01*
X371078Y118269D01*
X280194Y118269D01*
X279797Y117872D01*
X281781Y119856D01*
X369491Y119856D01*
X369888Y119459D01*
X369491Y119459D01*
X367506Y121444D01*
X284162Y121444D01*
X283766Y121047D01*
X284162Y121047D01*
X286544Y123428D01*
X365919Y123428D01*
X366316Y123031D01*
X364728Y123031D01*
X362347Y125412D01*
X289719Y125412D01*
X288131Y123825D01*
X290116Y123825D01*
X292100Y125809D01*
X360759Y125809D01*
X357981Y125809D01*
X356791Y127000D01*
X294799Y127000D01*
X294447Y127351D01*
X295626Y127351D01*
X296862Y128588D01*
X357872Y128588D01*
X357879Y128594D01*
X354799Y128594D01*
X353616Y129778D01*
X298053Y129778D01*
X296862Y128588D01*
X298450Y128588D01*
X301228Y131366D01*
X350441Y131366D01*
X350838Y130969D01*
X346869Y130969D01*
X345281Y132556D01*
X305594Y132556D01*
X304800Y131762D01*
X307181Y131762D01*
X309166Y133747D01*
X342503Y133747D01*
X315912Y133747D01*
X315119Y134541D01*
X336550Y134541D01*
X328612Y134541D01*
X327025Y136128D01*
X323056Y136128D01*
X322659Y135731D01*
G54D10*
X293688Y92472D02*
X356791Y92472D01*
X357188Y92075D01*
X299244Y92075D01*
X297259Y94059D01*
X353219Y94059D01*
X353616Y93662D01*
X300038Y93662D01*
X298847Y94853D01*
X352425Y94853D01*
X353219Y94059D01*
X302022Y94059D01*
X299641Y96441D01*
X350838Y96441D01*
X351631Y95647D01*
X301625Y95647D01*
X299641Y97631D01*
X350441Y97631D01*
X350838Y98028D01*
X301228Y98028D01*
X300038Y99219D01*
X350441Y99219D01*
X351234Y100012D01*
X300831Y100012D01*
X300038Y100806D01*
X350441Y100806D01*
X351631Y101997D01*
X299244Y101997D01*
X298450Y102791D01*
X351234Y102791D01*
X352028Y103584D01*
X298450Y103584D01*
X296862Y105172D01*
X352425Y105172D01*
X353219Y104378D01*
X354806Y105966D01*
G54D10*
X262334Y93266D02*
X291306Y93266D01*
X292497Y92075D01*
X265906Y92075D01*
X263525Y94456D01*
X287338Y94456D01*
X287338Y95250D01*
X286544Y96044D01*
X263922Y96044D01*
X263525Y95647D01*
X263525Y96044D01*
X265112Y97631D01*
X285750Y97631D01*
X286147Y97234D01*
X286147Y99219D01*
X264716Y99219D01*
X264716Y99616D01*
X266303Y101203D01*
X285750Y101203D01*
X286147Y100806D01*
X269081Y100806D01*
X267097Y102791D01*
X287338Y102791D01*
X269478Y102791D01*
X268288Y103981D01*
X287734Y103981D01*
X288925Y105172D01*
X269478Y105172D01*
X268288Y103981D01*
G54D10*
X190897Y633016D02*
X190897Y617141D01*
G54D10*
X190897Y617141D02*
X161925Y617141D01*
G54D10*
X190897Y633016D02*
X190897Y634206D01*
X161925Y634206D01*
X161925Y588169D01*
X300831Y588169D01*
X300831Y634206D01*
X190897Y634206D01*
G54D14*
G75*
G01X855847Y501803D02*
G03X819547Y469118I-36300J3815D01*
G01*
G54D14*
G75*
G01X920611Y464349D02*
G03X856479Y499170I-31610J18250D01*
G01*
G54D14*
G75*
G01X785204Y492688D02*
G03X716415Y468328I-34713J-11279D01*
G01*
G54D14*
G75*
G01X715969Y467764D02*
G03X712788Y394902I-3181J-36362D01*
G01*
G54D14*
G75*
G01X933847Y394902D02*
G03X921363Y465701I0J36500D01*
G01*
G54D14*
X712788Y394902D02*
X933847Y394902D01*
G54D14*
G75*
G01X769253Y477043D02*
G03X769253Y477043I-14000J0D01*
G01*
G54D14*
G75*
G01X727581Y437752D02*
G03X727581Y437752I-14000J0D01*
G01*
G54D14*
G75*
G01X843866Y432593D02*
G03X843866Y432593I-14000J0D01*
G01*
G54D14*
G75*
G01X900619Y482599D02*
G03X900619Y482599I-14000J0D01*
G01*
G54D14*
G75*
G01X936337Y433387D02*
G03X936337Y433387I-14000J0D01*
G01*
G54D14*
X938213Y433387D02*
X965199Y433387D01*
X965597Y433784D01*
G54D14*
X902494Y482997D02*
X920750Y482997D01*
X921544Y482203D01*
G54D14*
X829866Y416718D02*
X829866Y397272D01*
X829072Y396478D01*
G54D14*
X755253Y460771D02*
X755253Y396875D01*
X756444Y395684D01*
G54D14*
X728662Y438149D02*
X752476Y437752D01*
X754459Y435769D01*
G54D15*
G75*
G01X800216Y289719D02*
G03X800216Y289719I-27500J0D01*
G01*
G54D15*
G75*
G01X808750Y305990D02*
G03X781750Y365235I-78500J0D01*
G01*
G54D15*
G75*
G01X813610Y304894D02*
G03X786910Y357297I-78201J-6842D01*
G01*
G54D15*
G75*
G01X811797Y290859D02*
G03X813512Y307180I-76785J16321D01*
G01*
G54D15*
G75*
G01X780781Y263455D02*
G03X811550Y290202I-12035J44916D01*
G01*
G54D15*
G75*
G01X766904Y317056D02*
G03X781930Y364713I-29890J35622D01*
G01*
G54D15*
X785019Y359172D02*
X785019Y356791D01*
X790178Y351631D01*
X788194Y351631D01*
X786209Y353616D01*
X786209Y350838D01*
X785416Y350044D01*
X791766Y350044D01*
X792162Y349647D01*
X786606Y349647D01*
X784622Y347662D01*
X794941Y347662D01*
X795734Y346869D01*
X786209Y346869D01*
X784622Y345281D01*
X796131Y345281D01*
X797322Y344091D01*
X786209Y344091D01*
X784225Y342106D01*
X798909Y342106D01*
X799703Y341312D01*
X785812Y341312D01*
X782638Y338138D01*
X800100Y338138D01*
X800497Y338534D01*
X784622Y338534D01*
X782638Y336550D01*
X800100Y336550D01*
X801291Y335359D01*
X782241Y335359D01*
X780653Y333772D01*
X800894Y333772D01*
X802481Y332184D01*
X781050Y332184D01*
X780653Y331788D01*
X780653Y330994D01*
X779462Y329803D01*
X804069Y329803D01*
X780256Y329803D01*
X778272Y327819D01*
X804069Y327819D01*
X804862Y327025D01*
X778272Y327025D01*
X776684Y325438D01*
X806847Y325438D01*
X808038Y324247D01*
X775891Y324247D01*
X775097Y323453D01*
X806847Y323453D01*
X809228Y321072D01*
X773509Y321072D01*
X773112Y321469D01*
X773112Y321072D01*
X771128Y319088D01*
X808831Y319088D01*
X809228Y318691D01*
X783431Y318691D01*
X781844Y317103D01*
X810022Y317103D01*
X810419Y316706D01*
X810419Y314722D01*
X786606Y314722D01*
X785812Y315516D01*
X808434Y315516D01*
X810816Y313134D01*
X790575Y313134D01*
X790178Y312738D01*
X809625Y312738D01*
X811609Y310753D01*
X792956Y310753D01*
X809228Y310753D01*
X811212Y308769D01*
X795734Y308769D01*
X795338Y309166D01*
X809228Y309166D01*
X811609Y306784D01*
X796528Y306784D01*
X796131Y307181D01*
X808831Y307181D01*
X811609Y304403D01*
X798909Y304403D01*
X798116Y305197D01*
X809228Y305197D01*
X812403Y302022D01*
X799703Y302022D01*
X798909Y302816D01*
X798909Y302022D01*
X800894Y300038D01*
X811212Y300038D01*
X811609Y300434D01*
X811609Y298847D01*
X810419Y297656D01*
X800497Y297656D01*
X800497Y296466D01*
X801291Y295672D01*
X810816Y295672D01*
X804069Y295672D01*
X802084Y293688D01*
X810816Y293688D01*
X804069Y293688D01*
X802084Y291703D01*
X810022Y291703D01*
X803672Y291703D01*
X801688Y289719D01*
X808831Y289719D01*
X809228Y289322D01*
X803672Y289322D01*
X802084Y287734D01*
X808038Y287734D01*
X804069Y287734D01*
X801688Y285353D01*
X807641Y285353D01*
X802878Y285353D01*
X800894Y283369D01*
X806053Y283369D01*
X802878Y283369D01*
X800894Y281384D01*
X804466Y281384D01*
X801688Y281384D01*
X799306Y279003D01*
X802084Y279003D01*
X802481Y279400D01*
X801291Y279400D01*
X798512Y276622D01*
X798512Y275431D01*
X796528Y273447D01*
G54D15*
G75*
G01X919675Y289322D02*
G03X919675Y289322I-27500J0D01*
G01*
G54D15*
G75*
G01X928209Y305593D02*
G03X901210Y364838I-78500J0D01*
G01*
G54D15*
G75*
G01X933070Y304497D02*
G03X906369Y356900I-78202J-6841D01*
G01*
G54D15*
G75*
G01X931256Y290462D02*
G03X932972Y306784I-76784J16322D01*
G01*
G54D15*
G75*
G01X900241Y263058D02*
G03X931009Y289805I-12035J44916D01*
G01*
G54D15*
G75*
G01X886363Y316660D02*
G03X901389Y364316I-29889J35621D01*
G01*
G54D15*
X904478Y358775D02*
X904478Y356394D01*
X909638Y351234D01*
X907653Y351234D01*
X905669Y353219D01*
X905669Y350441D01*
X904875Y349647D01*
X911225Y349647D01*
X911622Y349250D01*
X906066Y349250D01*
X904081Y347266D01*
X914400Y347266D01*
X915194Y346472D01*
X905669Y346472D01*
X904081Y344884D01*
X915591Y344884D01*
X916781Y343694D01*
X905669Y343694D01*
X903684Y341709D01*
X918369Y341709D01*
X919162Y340916D01*
X905272Y340916D01*
X902097Y337741D01*
X919559Y337741D01*
X919956Y338138D01*
X904081Y338138D01*
X902097Y336153D01*
X919559Y336153D01*
X920750Y334962D01*
X901700Y334962D01*
X900112Y333375D01*
X920353Y333375D01*
X921941Y331788D01*
X900509Y331788D01*
X900112Y331391D01*
X900112Y330597D01*
X898922Y329406D01*
X923528Y329406D01*
X899716Y329406D01*
X897731Y327422D01*
X923528Y327422D01*
X924322Y326628D01*
X897731Y326628D01*
X896144Y325041D01*
X926306Y325041D01*
X927497Y323850D01*
X895350Y323850D01*
X894556Y323056D01*
X926306Y323056D01*
X928688Y320675D01*
X892969Y320675D01*
X892572Y321072D01*
X892572Y320675D01*
X890588Y318691D01*
X928291Y318691D01*
X928688Y318294D01*
X902891Y318294D01*
X901303Y316706D01*
X929481Y316706D01*
X929878Y316309D01*
X929878Y314325D01*
X906066Y314325D01*
X905272Y315119D01*
X927894Y315119D01*
X930275Y312738D01*
X910034Y312738D01*
X909638Y312341D01*
X929084Y312341D01*
X931069Y310356D01*
X912416Y310356D01*
X928688Y310356D01*
X930672Y308372D01*
X915194Y308372D01*
X914797Y308769D01*
X928688Y308769D01*
X931069Y306388D01*
X915988Y306388D01*
X915591Y306784D01*
X928291Y306784D01*
X931069Y304006D01*
X918369Y304006D01*
X917575Y304800D01*
X928688Y304800D01*
X931862Y301625D01*
X919162Y301625D01*
X918369Y302419D01*
X918369Y301625D01*
X920353Y299641D01*
X930672Y299641D01*
X931069Y300038D01*
X931069Y298450D01*
X929878Y297259D01*
X919956Y297259D01*
X919956Y296069D01*
X920750Y295275D01*
X930275Y295275D01*
X923528Y295275D01*
X921544Y293291D01*
X930275Y293291D01*
X923528Y293291D01*
X921544Y291306D01*
X929481Y291306D01*
X923131Y291306D01*
X921147Y289322D01*
X928291Y289322D01*
X928688Y288925D01*
X923131Y288925D01*
X921544Y287338D01*
X927497Y287338D01*
X923528Y287338D01*
X921147Y284956D01*
X927100Y284956D01*
X922338Y284956D01*
X920353Y282972D01*
X925512Y282972D01*
X922338Y282972D01*
X920353Y280988D01*
X923925Y280988D01*
X921147Y280988D01*
X918766Y278606D01*
X921544Y278606D01*
X921941Y279003D01*
X920750Y279003D01*
X917972Y276225D01*
X917972Y275034D01*
X915988Y273050D01*
G54D15*
G75*
G01X1058969Y289686D02*
G03X1058969Y289686I-27500J0D01*
G01*
G54D15*
G75*
G01X1067503Y305958D02*
G03X1040503Y365202I-78500J0D01*
G01*
G54D15*
G75*
G01X1072363Y304862D02*
G03X1045663Y357265I-78201J-6842D01*
G01*
G54D15*
G75*
G01X1070550Y290827D02*
G03X1072265Y307148I-76785J16321D01*
G01*
G54D15*
G75*
G01X1039535Y263423D02*
G03X1070303Y290170I-12035J44916D01*
G01*
G54D15*
G75*
G01X1025657Y317024D02*
G03X1040683Y364681I-29890J35622D01*
G01*
G54D15*
X1043772Y359140D02*
X1043772Y356758D01*
X1048931Y351599D01*
X1046947Y351599D01*
X1044962Y353584D01*
X1044962Y350806D01*
X1044169Y350012D01*
X1050519Y350012D01*
X1050916Y349615D01*
X1045359Y349615D01*
X1043375Y347630D01*
X1053694Y347630D01*
X1054488Y346837D01*
X1044962Y346837D01*
X1043375Y345249D01*
X1054884Y345249D01*
X1056075Y344058D01*
X1044962Y344058D01*
X1042978Y342074D01*
X1057662Y342074D01*
X1058456Y341280D01*
X1044566Y341280D01*
X1041391Y338106D01*
X1058853Y338106D01*
X1059250Y338502D01*
X1043375Y338502D01*
X1041391Y336518D01*
X1058853Y336518D01*
X1060044Y335327D01*
X1040994Y335327D01*
X1039406Y333740D01*
X1059647Y333740D01*
X1061234Y332152D01*
X1039803Y332152D01*
X1039406Y331756D01*
X1039406Y330962D01*
X1038216Y329771D01*
X1062822Y329771D01*
X1039009Y329771D01*
X1037025Y327787D01*
X1062822Y327787D01*
X1063616Y326993D01*
X1037025Y326993D01*
X1035438Y325406D01*
X1065600Y325406D01*
X1066791Y324215D01*
X1034644Y324215D01*
X1033850Y323421D01*
X1065600Y323421D01*
X1067981Y321040D01*
X1032262Y321040D01*
X1031866Y321437D01*
X1031866Y321040D01*
X1029881Y319056D01*
X1067584Y319056D01*
X1067981Y318658D01*
X1042184Y318658D01*
X1040597Y317071D01*
X1068775Y317071D01*
X1069172Y316674D01*
X1069172Y314690D01*
X1045359Y314690D01*
X1044566Y315484D01*
X1067188Y315484D01*
X1069569Y313102D01*
X1049328Y313102D01*
X1048931Y312706D01*
X1068378Y312706D01*
X1070362Y310721D01*
X1051709Y310721D01*
X1067981Y310721D01*
X1069966Y308737D01*
X1054488Y308737D01*
X1054091Y309134D01*
X1067981Y309134D01*
X1070362Y306752D01*
X1055281Y306752D01*
X1054884Y307149D01*
X1067584Y307149D01*
X1070362Y304371D01*
X1057662Y304371D01*
X1056869Y305165D01*
X1067981Y305165D01*
X1071156Y301990D01*
X1058456Y301990D01*
X1057662Y302784D01*
X1057662Y301990D01*
X1059647Y300006D01*
X1069966Y300006D01*
X1070362Y300402D01*
X1070362Y298815D01*
X1069172Y297624D01*
X1059250Y297624D01*
X1059250Y296434D01*
X1060044Y295640D01*
X1069569Y295640D01*
X1062822Y295640D01*
X1060838Y293656D01*
X1069569Y293656D01*
X1062822Y293656D01*
X1060838Y291671D01*
X1068775Y291671D01*
X1062425Y291671D01*
X1060441Y289687D01*
X1067584Y289687D01*
X1067981Y289290D01*
X1062425Y289290D01*
X1060838Y287702D01*
X1066791Y287702D01*
X1062822Y287702D01*
X1060441Y285321D01*
X1066394Y285321D01*
X1061631Y285321D01*
X1059647Y283337D01*
X1064806Y283337D01*
X1061631Y283337D01*
X1059647Y281352D01*
X1063219Y281352D01*
X1060441Y281352D01*
X1058059Y278971D01*
X1060838Y278971D01*
X1061234Y279368D01*
X1060044Y279368D01*
X1057266Y276590D01*
X1057266Y275399D01*
X1055281Y273415D01*
G54D15*
G75*
G01X1037431Y302419D02*
G03X1037431Y302419I-5556J0D01*
G01*
G54D15*
G75*
G01X1025922Y281384D02*
G03X1025922Y281384I-5556J0D01*
G01*
G54D15*
G75*
G01X1048544Y281781D02*
G03X1048544Y281781I-5556J0D01*
G01*
G54D15*
G75*
G01X1033463Y289322D02*
G03X1033463Y289322I-1588J0D01*
G01*
G54D15*
G75*
G01X779922Y289719D02*
G03X779922Y289719I-8000J0D01*
G01*
G54D16*
G75*
G01X774700Y307578D02*
G03X774700Y307578I-2778J0D01*
G01*
G54D16*
G75*
G01X760449Y279327D02*
G03X760449Y279327I-2778J0D01*
G01*
G54D16*
G75*
G01X790286Y280590D02*
G03X790286Y280590I-2778J0D01*
G01*
G54D11*
G75*
G01X772994Y289720D02*
G03X772994Y289720I-1191J0D01*
G01*
G54D15*
X771922Y307578D02*
X771922Y298053D01*
G54D15*
X757671Y279327D02*
X758355Y279327D01*
X764381Y285353D01*
G54D15*
X779462Y286941D02*
X779654Y286941D01*
X785623Y280972D01*
G54D10*
X891381Y309166D02*
X898525Y309166D01*
G54D10*
X893366Y299244D02*
X898922Y299244D01*
G54D10*
X886619Y294878D02*
X890588Y294878D01*
G54D10*
X892572Y287734D02*
X898525Y287734D01*
G54D10*
X886222Y282972D02*
X890191Y282972D01*
G54D10*
G75*
G01X891067Y308877D02*
G03X886654Y295173I235660J-83452D01*
G01*
G54D10*
G75*
G01X890670Y296574D02*
G03X886257Y282870I235660J-83452D01*
G01*
G54D10*
G75*
G01X890273Y281890D02*
G03X885618Y267347I235660J-83452D01*
G01*
G54D10*
G75*
G01X898524Y309138D02*
G03X893481Y298492I223343J-112330D01*
G01*
G54D10*
G75*
G01X898921Y299216D02*
G03X893878Y288570I223343J-112330D01*
G01*
G54D10*
G75*
G01X898706Y287724D02*
G03X886823Y267388I209668J-136160D01*
G01*
G54D10*
X891778Y307975D02*
X896541Y307975D01*
X892969Y307975D01*
X891381Y306388D01*
X896144Y306388D01*
X892572Y306388D01*
X890984Y304800D01*
X895350Y304800D01*
X891778Y304800D01*
X890191Y303212D01*
X894556Y303212D01*
X891778Y303212D01*
X890191Y301625D01*
X893762Y301625D01*
X890588Y301625D01*
X889397Y300434D01*
X892572Y300434D01*
X890588Y300434D01*
X889000Y298847D01*
X892969Y298847D01*
X893366Y298450D01*
X889397Y298450D01*
X888603Y297656D01*
X896938Y297656D01*
X889794Y297656D01*
X888206Y296069D01*
X895747Y296069D01*
X896144Y296466D01*
X892969Y296466D01*
X891381Y294878D01*
X894953Y294878D01*
X895350Y295275D01*
X892572Y295275D01*
X890984Y293688D01*
X894556Y293688D01*
X891778Y293688D01*
X890588Y292497D01*
X894556Y292497D01*
X891381Y292497D01*
X890191Y291306D01*
X893762Y291306D01*
X890984Y291306D01*
X889794Y290116D01*
X892969Y290116D01*
X890984Y290116D01*
X889794Y288925D01*
X892572Y288925D01*
X889794Y288925D01*
X888603Y287734D01*
X892175Y287734D01*
X890191Y287734D01*
X889000Y286544D01*
X896541Y286544D01*
X889794Y286544D01*
X888206Y284956D01*
X896144Y284956D01*
X888603Y284956D01*
X887809Y284162D01*
X894556Y284162D01*
X894953Y283766D01*
X892175Y283766D01*
X891381Y282972D01*
X893366Y282972D01*
X893762Y282575D01*
X892572Y282575D01*
X891778Y281781D01*
X893366Y281781D01*
X892175Y281781D01*
X890984Y280591D01*
X892969Y280591D01*
X891778Y280591D01*
X890588Y279400D01*
X892175Y279400D01*
X891778Y279400D01*
X890191Y277812D01*
X891381Y277812D01*
X890588Y277812D01*
X889397Y276622D01*
X890588Y276622D01*
X889397Y275431D01*
X889397Y273050D01*
X888206Y271859D01*
X887196Y269120D01*
X885825Y266700D01*
G54D15*
G75*
G01X590874Y301153D02*
G03X602133Y301153I5630J3250D01*
G01*
G54D15*
G75*
G01X591020Y300906D02*
G03X579762Y300906I-5629J-3250D01*
G01*
G54D15*
G75*
G01X613642Y301303D02*
G03X602384Y301303I-5629J-3250D01*
G01*
G54D15*
G75*
G01X590874Y289247D02*
G03X602133Y289247I5630J3250D01*
G01*
G54D15*
G75*
G01X591020Y289000D02*
G03X579762Y289000I-5629J-3250D01*
G01*
G54D15*
G75*
G01X613642Y289397D02*
G03X602384Y289397I-5629J-3250D01*
G01*
G54D15*
G75*
G01X590874Y277341D02*
G03X602133Y277341I5630J3250D01*
G01*
G54D15*
G75*
G01X591020Y277094D02*
G03X579762Y277094I-5629J-3250D01*
G01*
G54D15*
G75*
G01X613642Y277491D02*
G03X602384Y277491I-5629J-3250D01*
G01*
G54D15*
G75*
G01X590874Y265434D02*
G03X602133Y265434I5630J3250D01*
G01*
G54D15*
G75*
G01X591020Y265188D02*
G03X579762Y265188I-5629J-3250D01*
G01*
G54D15*
G75*
G01X613642Y265584D02*
G03X602384Y265584I-5629J-3250D01*
G01*
G54D15*
G75*
G01X636515Y265831D02*
G03X647773Y265831I5629J3250D01*
G01*
G54D15*
G75*
G01X636661Y265584D02*
G03X625402Y265584I-5629J-3250D01*
G01*
G54D15*
G75*
G01X659283Y265981D02*
G03X648024Y265981I-5629J-3250D01*
G01*
G54D15*
G75*
G01X658740Y302344D02*
G03X669998Y302344I5629J3250D01*
G01*
G54D15*
G75*
G01X658886Y302097D02*
G03X647627Y302097I-5629J-3250D01*
G01*
G54D15*
G75*
G01X681508Y302494D02*
G03X670249Y302494I-5630J-3250D01*
G01*
G54D15*
G75*
G01X659137Y289247D02*
G03X670395Y289247I5629J3250D01*
G01*
G54D15*
G75*
G01X659283Y289000D02*
G03X648024Y289000I-5629J-3250D01*
G01*
G54D15*
G75*
G01X681905Y289397D02*
G03X670646Y289397I-5630J-3250D01*
G01*
G54D15*
G75*
G01X659534Y277738D02*
G03X670792Y277738I5629J3250D01*
G01*
G54D15*
G75*
G01X659680Y277491D02*
G03X648421Y277491I-5630J-3250D01*
G01*
G54D15*
G75*
G01X682301Y277888D02*
G03X671043Y277888I-5629J-3250D01*
G01*
G54D15*
G75*
G01X613893Y265434D02*
G03X625151Y265434I5629J3250D01*
G01*
G54D15*
G75*
G01X659534Y265831D02*
G03X670792Y265831I5629J3250D01*
G01*
G54D15*
G75*
G01X682301Y265981D02*
G03X671043Y265981I-5629J-3250D01*
G01*
G54D10*
G75*
G01X643634Y290512D02*
G03X643634Y290512I-13000J0D01*
G01*
G36*
G75*
G01X643634Y290512D02*
G03X643634Y290512I-13000J0D01*
G01*
G37*
X643634Y290512D01*
G54D15*
X624284Y324644D02*
X624284Y299641D01*
X624681Y299244D01*
G54D15*
G75*
G01X636237Y363935D02*
G03X624237Y363935I-6000J0D01*
G01*
G54D15*
X624284Y324644D02*
X624284Y363888D01*
X624237Y363935D01*
G54D15*
X636237Y363935D02*
X636237Y299687D01*
X634206Y297656D01*
G54D15*
X630238Y352028D02*
X635397Y352028D01*
G54D15*
X630634Y340916D02*
X624681Y340916D01*
G54D15*
X630634Y330597D02*
X635000Y330597D01*
G54D15*
G75*
G01X636237Y315516D02*
G03X624237Y315516I-6000J0D01*
G01*
G54D15*
X627856Y319881D02*
X632619Y319881D01*
X633016Y319484D01*
X628253Y319484D01*
X626269Y317500D01*
X633809Y317500D01*
X634206Y317103D01*
X625824Y317103D01*
X624237Y315516D01*
X633809Y315516D01*
X627856Y315516D01*
X625475Y313134D01*
X634603Y313134D01*
X635000Y313531D01*
X627856Y313531D01*
X624681Y310356D01*
X635000Y310356D01*
X635397Y310753D01*
X628253Y310753D01*
X626269Y308769D01*
X635397Y308769D01*
X636191Y307975D01*
X627062Y307975D01*
X625475Y306388D01*
X633412Y306388D01*
X634206Y305594D01*
X627459Y305594D01*
X626269Y304403D01*
X634603Y304403D01*
X635000Y304006D01*
G54D17*
X572270Y200030D02*
X572270Y235586D01*
G54D17*
X558047Y235586D02*
X586492Y235586D01*
G54D17*
X620269Y202253D02*
X614580Y200030D01*
X607469Y200030D01*
X600358Y202253D01*
X598935Y206697D01*
X598935Y214253D01*
X602491Y218697D01*
X609602Y220030D01*
X616713Y218697D01*
X620269Y215586D01*
X620269Y211142D01*
X598935Y211142D01*
G54D17*
X632712Y200030D02*
X632712Y220030D01*
G54D17*
X632712Y216475D02*
X639824Y220030D01*
X646935Y218697D01*
X650490Y215586D01*
X650490Y200030D01*
G54D17*
X650490Y216475D02*
X657601Y220030D01*
X664712Y218697D01*
X668268Y215586D01*
X668268Y200030D01*
G54D17*
X680712Y220030D02*
X680712Y191142D01*
G54D17*
X680712Y206697D02*
X684268Y200919D01*
X691379Y200030D01*
X698490Y200919D01*
X702046Y205364D01*
X702046Y214253D01*
X698490Y218697D01*
X691379Y220030D01*
X684268Y218697D01*
X680712Y213364D01*
G54D17*
X758825Y220819D02*
X758825Y191930D01*
G54D17*
X758825Y207486D02*
X762381Y201708D01*
X769492Y200819D01*
X776603Y201708D01*
X780158Y206152D01*
X780158Y215041D01*
X776603Y219486D01*
X769492Y220819D01*
X762381Y219486D01*
X758825Y214152D01*
G54D17*
X792602Y200819D02*
X792602Y236374D01*
G54D17*
X821046Y200819D02*
X821046Y236374D01*
G54D17*
X792602Y218596D02*
X821046Y218596D01*
G54D17*
X890473Y198041D02*
X865584Y198041D01*
X865584Y233596D01*
X890473Y233596D01*
G54D17*
X865584Y215818D02*
X890473Y215818D01*
G54D17*
X931362Y204707D02*
X927806Y200263D01*
X920695Y198041D01*
X913584Y198041D01*
X906473Y200263D01*
X902917Y204707D01*
X902917Y226930D01*
X906473Y231374D01*
X913584Y233596D01*
X920695Y233596D01*
X927806Y231374D01*
X931362Y226930D01*
G54D17*
X1021029Y228120D02*
X1021029Y205898D01*
X1017473Y201454D01*
X1010362Y199231D01*
X1003251Y199231D01*
X996140Y201454D01*
X992584Y205898D01*
X992584Y228120D01*
X996140Y232564D01*
X1003251Y234787D01*
X1010362Y234787D01*
X1017473Y232564D01*
X1021029Y228120D01*
G54D17*
X1047695Y217009D02*
X1058361Y212564D01*
X1061917Y208120D01*
X1061917Y199231D01*
G54D17*
X1033472Y199231D02*
X1033472Y234787D01*
X1051250Y234787D01*
X1058361Y232564D01*
X1061917Y228120D01*
X1061917Y223676D01*
X1058361Y219231D01*
X1051250Y217009D01*
X1033472Y217009D01*
G54D17*
X1074360Y199231D02*
X1074360Y234787D01*
X1092138Y234787D01*
X1099249Y232564D01*
X1102805Y228120D01*
X1102805Y223676D01*
X1099249Y219231D01*
X1092138Y217009D01*
X1074360Y217009D01*
G54D18*
X598944Y799593D02*
X596811Y799993D01*
X594678Y799593D01*
X593611Y798259D01*
X593611Y795593D01*
X594678Y794259D01*
X596811Y793993D01*
X598944Y794259D01*
G54D10*
G75*
G01X603606Y797322D02*
G03X603606Y797322I-7500J0D01*
G01*
G54D19*
X271730Y790292D02*
X271730Y805403D01*
X279286Y805403D01*
X282308Y804459D01*
X283819Y802570D01*
X283819Y793125D01*
X282308Y791236D01*
X279286Y790292D01*
X271730Y790292D01*
G54D19*
X289108Y790292D02*
X289108Y798792D01*
G54D19*
X289108Y796903D02*
X292130Y798792D01*
X295152Y798792D01*
G54D19*
X309508Y792559D02*
X309508Y796336D01*
X307997Y798225D01*
X304974Y798792D01*
X301952Y798225D01*
X300441Y796336D01*
X300441Y792559D01*
X301952Y790670D01*
X304974Y790292D01*
X307997Y790670D01*
X309508Y792559D01*
G54D19*
X314797Y790292D02*
X314797Y798792D01*
G54D19*
X314797Y796903D02*
X316308Y798225D01*
X319330Y798792D01*
X322353Y798225D01*
X323864Y796903D01*
X323864Y790292D01*
G54D19*
X338220Y791236D02*
X335802Y790292D01*
X332780Y790292D01*
X329757Y791236D01*
X329153Y793125D01*
X329153Y796336D01*
X330664Y798225D01*
X333686Y798792D01*
X336709Y798225D01*
X338220Y796903D01*
X338220Y795014D01*
X329153Y795014D01*
G54D19*
X343509Y798792D02*
X343509Y786514D01*
G54D19*
X343509Y793125D02*
X345020Y790670D01*
X348042Y790292D01*
X351065Y790670D01*
X352576Y792559D01*
X352576Y796336D01*
X351065Y798225D01*
X348042Y798792D01*
X345020Y798225D01*
X343509Y795959D01*
G54D19*
X366932Y792559D02*
X366932Y796336D01*
X365421Y798225D01*
X362398Y798792D01*
X359376Y798225D01*
X357865Y796336D01*
X357865Y792559D01*
X359376Y790670D01*
X362398Y790292D01*
X365421Y790670D01*
X366932Y792559D01*
G54D19*
X372221Y790292D02*
X372221Y798792D01*
G54D19*
X372221Y796903D02*
X373732Y798225D01*
X376754Y798792D01*
X379777Y798225D01*
X381288Y796903D01*
X381288Y790292D01*
G54D19*
X386577Y790292D02*
X386577Y798792D01*
G54D19*
X386577Y801625D02*
X386577Y801625D01*
G54D19*
X399422Y798225D02*
X396399Y798792D01*
X393377Y798225D01*
X391866Y796336D01*
X391866Y792559D01*
X393377Y790670D01*
X396399Y790292D01*
X399422Y790670D01*
G54D19*
X404711Y791236D02*
X407733Y790292D01*
X410755Y790292D01*
X413778Y791236D01*
X413778Y793125D01*
X412267Y794070D01*
X406222Y795014D01*
X404711Y795959D01*
X404711Y797848D01*
X407733Y798792D01*
X410755Y798792D01*
X413778Y797848D01*
G54D19*
X433725Y790292D02*
X433725Y805403D01*
G54D19*
X433725Y796336D02*
X432214Y798225D01*
X429191Y798792D01*
X426169Y798225D01*
X424658Y796336D01*
X424658Y792559D01*
X426169Y790670D01*
X429191Y790292D01*
X432214Y790670D01*
X433725Y792559D01*
G54D19*
X439014Y790292D02*
X439014Y798792D01*
G54D19*
X439014Y796903D02*
X442036Y798792D01*
X445058Y798792D01*
G54D19*
X459414Y792559D02*
X459414Y796336D01*
X457903Y798225D01*
X454880Y798792D01*
X451858Y798225D01*
X450347Y796336D01*
X450347Y792559D01*
X451858Y790670D01*
X454880Y790292D01*
X457903Y790670D01*
X459414Y792559D01*
G54D19*
X464703Y790292D02*
X464703Y798792D01*
G54D19*
X464703Y796903D02*
X466214Y798225D01*
X469236Y798792D01*
X472259Y798225D01*
X473770Y796903D01*
X473770Y790292D01*
G54D19*
X488126Y791236D02*
X485708Y790292D01*
X482686Y790292D01*
X479663Y791236D01*
X479059Y793125D01*
X479059Y796336D01*
X480570Y798225D01*
X483592Y798792D01*
X486615Y798225D01*
X488126Y796903D01*
X488126Y795014D01*
X479059Y795014D01*
G54D19*
X493415Y790292D02*
X493415Y805403D01*
X500971Y795959D01*
X508526Y805403D01*
X508526Y790292D01*
G54D19*
X522882Y792559D02*
X522882Y796336D01*
X521371Y798225D01*
X518348Y798792D01*
X515326Y798225D01*
X513815Y796336D01*
X513815Y792559D01*
X515326Y790670D01*
X518348Y790292D01*
X521371Y790670D01*
X522882Y792559D01*
G54D19*
X528171Y790292D02*
X528171Y798792D01*
G54D19*
X528171Y796903D02*
X529682Y798225D01*
X532704Y798792D01*
X535727Y798225D01*
X537238Y796903D01*
X537238Y790292D01*
G54D19*
X542527Y790292D02*
X542527Y798792D01*
G54D19*
X542527Y801625D02*
X542527Y801625D01*
G54D19*
X550838Y805403D02*
X550838Y791236D01*
X552349Y790292D01*
X553860Y790670D01*
G54D19*
X547816Y798792D02*
X553860Y798792D01*
G54D19*
X568216Y792559D02*
X568216Y796336D01*
X566705Y798225D01*
X563682Y798792D01*
X560660Y798225D01*
X559149Y796336D01*
X559149Y792559D01*
X560660Y790670D01*
X563682Y790292D01*
X566705Y790670D01*
X568216Y792559D01*
G54D19*
X573505Y790292D02*
X573505Y798792D01*
G54D19*
X573505Y796903D02*
X576527Y798792D01*
X579549Y798792D01*
G54D19*
X623783Y789130D02*
X611694Y789130D01*
X611694Y790075D01*
X613205Y791964D01*
X622272Y797630D01*
X623783Y799519D01*
X623783Y801408D01*
X622272Y803297D01*
X619250Y804242D01*
X616227Y804242D01*
X613205Y803297D01*
X611694Y801408D01*
G54D19*
X641161Y801408D02*
X641161Y791964D01*
X639650Y790075D01*
X636628Y789130D01*
X633605Y789130D01*
X630583Y790075D01*
X629072Y791964D01*
X629072Y801408D01*
X630583Y803297D01*
X633605Y804242D01*
X636628Y804242D01*
X639650Y803297D01*
X641161Y801408D01*
G54D19*
X658539Y789130D02*
X646450Y789130D01*
X646450Y790075D01*
X647961Y791964D01*
X657028Y797630D01*
X658539Y799519D01*
X658539Y801408D01*
X657028Y803297D01*
X654006Y804242D01*
X650983Y804242D01*
X647961Y803297D01*
X646450Y801408D01*
G54D19*
X675917Y801408D02*
X675917Y791964D01*
X674406Y790075D01*
X671384Y789130D01*
X668361Y789130D01*
X665339Y790075D01*
X663828Y791964D01*
X663828Y801408D01*
X665339Y803297D01*
X668361Y804242D01*
X671384Y804242D01*
X674406Y803297D01*
X675917Y801408D01*
M02*
