%FSLAX34Y34*%
%MOMM*%
%LNOUTLINE*%
G71*
G01*
%ADD10C, 0.200*%
%LPD*%
G54D10*
G75*
G01X1480000Y735000D02*
G03X1530000Y685000I50000J0D01*
G01*
G54D10*
G75*
G01X1530000Y225000D02*
G03X1480000Y175000I0J-50000D01*
G01*
G54D10*
G75*
G01X110000Y685000D02*
G03X160000Y735000I0J50000D01*
G01*
G54D10*
G75*
G01X160000Y175000D02*
G03X110000Y225000I-50000J0D01*
G01*
G54D10*
G75*
G01X1580000Y660000D02*
G03X1555000Y685000I-25000J0D01*
G01*
G54D10*
G75*
G01X1555000Y225000D02*
G03X1580000Y250000I0J25000D01*
G01*
G54D10*
G75*
G01X1480000Y840000D02*
G03X1455000Y865000I-25000J0D01*
G01*
G54D10*
G75*
G01X1455000Y45000D02*
G03X1480000Y70000I0J25000D01*
G01*
G54D10*
G75*
G01X185000Y865000D02*
G03X160000Y840000I0J-25000D01*
G01*
G54D10*
G75*
G01X85000Y685000D02*
G03X60000Y660000I0J-25000D01*
G01*
G54D10*
G75*
G01X60000Y250000D02*
G03X85000Y225000I25000J0D01*
G01*
G54D10*
G75*
G01X160000Y70000D02*
G03X185000Y45000I25000J0D01*
G01*
G54D10*
X1455000Y865000D02*
X185000Y865000D01*
G54D10*
X160000Y840000D02*
X160000Y735000D01*
G54D10*
X110000Y685000D02*
X85000Y685000D01*
G54D10*
X60000Y660000D02*
X60000Y250000D01*
G54D10*
X85000Y225000D02*
X110000Y225000D01*
G54D10*
X160000Y175000D02*
X160000Y70000D01*
G54D10*
X185000Y45000D02*
X1455000Y45000D01*
G54D10*
X1480000Y70000D02*
X1480000Y175000D01*
G54D10*
X1530000Y225000D02*
X1555000Y225000D01*
G54D10*
X1580000Y250000D02*
X1580000Y660000D01*
G54D10*
X1555000Y685000D02*
X1530000Y685000D01*
G54D10*
X1480000Y735000D02*
X1480000Y840000D01*
G54D10*
G75*
G01X245000Y780000D02*
G03X245000Y780000I-10000J0D01*
G01*
G54D10*
G75*
G01X150000Y605000D02*
G03X150000Y605000I-10000J0D01*
G01*
G54D10*
G75*
G01X150000Y305000D02*
G03X150000Y305000I-10000J0D01*
G01*
G54D10*
G75*
G01X245000Y130000D02*
G03X245000Y130000I-10000J0D01*
G01*
G54D10*
G75*
G01X1415000Y130000D02*
G03X1415000Y130000I-10000J0D01*
G01*
G54D10*
G75*
G01X1510000Y305000D02*
G03X1510000Y305000I-10000J0D01*
G01*
G54D10*
G75*
G01X1510000Y605000D02*
G03X1510000Y605000I-10000J0D01*
G01*
G54D10*
G75*
G01X1415000Y780000D02*
G03X1415000Y780000I-10000J0D01*
G01*
M02*
