<svg viewBox="0 0 1000 1000" xmlns="http://www.w3.org/2000/svg" fill-rule="evenodd" clip-rule="evenodd" stroke-linejoin="round" stroke-miterlimit="1.414"><path fill="#868686" d="M209.07 53.34h31.373v151.974H209.07zM753.111 52.133h31.372v151.973h-31.372zM467.113 446.768H345.605v-121.11h121.508v121.11zm-90.842-90.445v59.779h60.176v-59.78h-60.176zM648.421 446.768H526.914v-121.11H648.42v121.11zm-90.842-90.445v59.779h60.177v-59.78h-60.177zM829.408 445.992H707.901v-121.11h121.507v121.11zm-90.842-90.445v59.779h60.177v-59.779h-60.177zM286.307 628.376H164.8v-121.11h121.507v121.11zm-90.842-90.445v59.78h60.177v-59.78h-60.177zM466.707 627.507H345.2v-121.11h121.507v121.11zm-90.842-90.445v59.78h60.177v-59.78h-60.177zM647.553 627.666H526.046v-121.11h121.507v121.11zm-90.842-90.445v59.78h60.177v-59.78H556.71zM829.456 627.803H707.95v-121.11h121.507v121.11zm-90.842-90.445v59.78h60.177v-59.78h-60.177zM285.562 808.926H164.055v-121.11h121.507v121.11zm-90.842-90.445v59.78h60.177v-59.78H194.72zM466.218 809.296H344.71v-121.11h121.508v121.11zm-90.842-90.445v59.78h60.177v-59.78h-60.177zM647.178 808.767H525.671v-121.11h121.507v121.11zm-90.842-90.445v59.78h60.177v-59.78h-60.177z"/><path d="M920.418 900.866H72.938V144.775h847.48v756.091zM104.53 176.368v692.904h784.294V176.368H104.531z" fill="#868686"/><path fill="#868686" d="M100.864 234.616h811.788v32.113H100.864z"/></svg>