<svg viewBox="0 0 1000 857" xmlns="http://www.w3.org/2000/svg" fill-rule="evenodd" clip-rule="evenodd" stroke-linejoin="round" stroke-miterlimit="1.414"><path d="M237.063 347.166c-1.919-10.236-11.787-16.989-22.023-15.07l-34.722 6.512c-10.235 1.919-16.988 11.788-15.069 22.023 1.92 10.237 11.789 16.988 22.024 15.07l34.722-6.512c10.236-1.92 16.988-11.787 15.068-22.023zM143.154 412.067c6.053-8.797 3.825-20.854-4.973-26.907-8.797-6.053-20.854-3.825-26.907 4.972l-17.861 25.96c-6.053 8.797-3.825 20.854 4.972 26.907 8.798 6.053 20.855 3.825 26.908-4.972l17.861-25.96z" fill="#868686"/><path d="M684.13 857h-44.439l-281.94-72.193-38.074.111L0 857V72.992L316.245 0h44.024l281.1 70.56 33.789.504L1000 0v785.86L684.13 857zm-5.361-751.236l283.1-61.303 2.429 713.015-283.35 63.235-2.179-714.947zM357.153 34.637l284.118 70.801 1.254 715.273-286.157-71.264.785-714.81zM35.832 99.113l283.426-64.476.982 713.06-283.132 63.842-1.276-712.426z" fill="#868686"/><path d="M621.7 503.102c-7.142-6.153-17.935-5.35-24.087 1.792-6.153 7.142-5.35 17.935 1.791 24.088l29.393 25.322c7.142 6.153 17.936 5.35 24.089-1.791 6.153-7.142 5.35-17.936-1.793-24.089L621.7 503.102zM569.147 479.295c2.36-9.503-3.44-19.134-12.945-21.493l-32.38-8.039c-9.503-2.359-19.135 3.442-21.494 12.945-2.36 9.504 3.441 19.136 12.945 21.495l32.38 8.038c9.504 2.36 19.135-3.442 21.494-12.946zM468.336 484.807c-7.098-7.109-18.63-7.117-25.739-.02l-23.533 23.5c-7.109 7.098-7.117 18.63-.019 25.738 7.097 7.107 18.63 7.116 25.738.018l23.533-23.5c7.108-7.097 7.116-18.63.02-25.736zM392.456 560.6c-5.147-8.153-15.945-10.594-24.099-5.446l-25.518 16.11c-8.153 5.147-10.593 15.946-5.446 24.1 5.147 8.152 15.947 10.593 24.1 5.446l25.517-16.11c8.154-5.148 10.594-15.947 5.446-24.1zM295.668 609.045c1.905-8.543-3.483-17.027-12.027-18.933l-36.592-8.163c-8.544-1.906-17.028 3.484-18.934 12.027l-1.04 4.666c-1.906 8.543 3.483 17.027 12.027 18.933l36.592 8.163c8.544 1.906 17.027-3.484 18.933-12.027l1.04-4.666zM862.871 330.703c-4.104-8.094-14.006-11.332-22.099-7.228-8.092 4.103-11.33 14.005-7.227 22.098l16.47 32.48c4.104 8.093 14.005 11.331 22.098 7.228 8.093-4.104 11.332-14.006 7.228-22.1l-16.47-32.478zM901.633 435.16c-2.082-9.258-11.288-15.084-20.545-13.002-9.258 2.082-15.084 11.288-13.003 20.545l7.53 33.485c2.081 9.258 11.287 15.083 20.546 13.001 9.257-2.081 15.083-11.287 13.001-20.545l-7.53-33.484zM907.172 548.722c2.634-8.75-2.331-17.99-11.08-20.622-8.748-2.633-17.989 2.331-20.622 11.08l-10.774 35.798c-2.633 8.747 2.332 17.989 11.08 20.622 8.749 2.633 17.989-2.333 20.622-11.08l10.774-35.798zM845.474 617.326c-1.615-9.739-10.834-16.333-20.573-14.718l-35.919 5.959c-9.739 1.615-16.334 10.833-14.719 20.572 1.616 9.74 10.834 16.333 20.573 14.718l35.92-5.959c9.738-1.615 16.334-10.833 14.718-20.572zM737.794 614.346c4.838-7.954 2.308-18.34-5.647-23.177l-36.203-22.019c-7.954-4.838-18.34-2.307-23.177 5.647-4.838 7.955-2.308 18.34 5.646 23.178l36.203 22.018c7.955 4.838 18.34 2.308 23.178-5.647zM251.225 505.63c2.63-8.838-2.409-18.15-11.249-20.782-8.838-2.63-18.15 2.41-20.781 11.248l-10.425 35.02c-2.63 8.839 2.409 18.15 11.248 20.782 8.84 2.631 18.151-2.409 20.782-11.248l10.425-35.02zM853.094 188.92c4.132-9.107.093-19.856-9.015-23.989-9.108-4.132-19.858-.092-23.99 9.015l-62.554 137.878c-4.133 9.108-.092 19.857 9.015 23.989 9.108 4.132 19.857.093 23.99-9.015l62.554-137.878z" fill="#868686"/><path d="M892.712 267.452c3.052-9.185-1.928-19.121-11.113-22.173l-141.865-47.14c-9.185-3.052-19.121 1.927-22.173 11.113-3.053 9.186 1.927 19.121 11.112 22.174l141.865 47.14c9.185 3.052 19.121-1.928 22.174-11.114zM284.012 400.498c.387-9.761-7.223-18-16.984-18.388-9.76-.387-18 7.223-18.387 16.985l-1.375 34.639c-.387 9.761 7.223 18 16.984 18.388 9.761.387 18-7.223 18.387-16.985l1.375-34.639z" fill="#868686"/><path d="M221.996 369.189c-3.393-3.393-72.529-96.501-72.529-96.501" fill="none"/></svg>