<svg viewBox="0 0 108 108" xmlns="http://www.w3.org/2000/svg" fill-rule="evenodd" clip-rule="evenodd" stroke-linejoin="round" stroke-miterlimit="2"><path d="M52.9 26.5c-6.2 0-11.4 3.7-13.6 9-.4.9-.7 1.7-.9 2.7-2.7-2.4-6.3-3.8-10.1-3.8-8.3 0-15.1 6.6-15.1 14.8 0 1 .1 1.9.3 2.9C6 52.8 0 59.1 0 66.8c0 7.8 7.5 14.7 16 14.7h76.9c8.3 0 15.1-6.6 15.1-14.8 0-8.1-6.8-14.8-15.1-14.8h-.3c.2-.9.3-1.9.3-2.8 0-8.1-6.8-14.8-15.1-14.8-3.7 0-7.2 1.3-10 3.7-1.4-6.5-7.4-11.5-14.6-11.5h-.3zm40 40.3c0 1.9-1.5 3.4-3.4 3.4s-3.4-1.5-3.4-3.4 1.5-3.4 3.4-3.4 3.4 1.5 3.4 3.4zM80.3 49.1c0 1.9-1.5 3.4-3.4 3.4s-3.4-1.5-3.4-3.4 1.5-3.4 3.4-3.4 3.4 1.5 3.4 3.4zm-15.4-7.8v.9c-.1.8.4 1.5 1.1 1.7.7.2 1.5 0 2-.7 2.2-3.4 5.9-5.4 9.9-5.4 5.8 0 10.7 4.2 11.5 9.6h-5.9c-.8-2.9-3.4-5.1-6.5-5.1-3.7 0-6.8 3-6.8 6.8s3 6.8 6.8 6.8c3.1 0 5.8-2.2 6.5-5.1h5.9c-.1 1-.4 1.9-.8 2.8-.3.6-.1 1.3.3 1.8s1.1.7 1.7.5c.3-.1.6-.2.8-.2.6-.2.8-.3 1.5-.3 5.8 0 10.7 4.2 11.5 9.7H96c-.8-2.9-3.4-5.1-6.5-5.1-3.7 0-6.8 3-6.8 6.8s3 6.8 6.8 6.8c3.1 0 5.8-2.2 6.5-5.1h8.5c-.8 5.5-5.7 9.7-11.5 9.7H58.2v-4.9c2.9-.8 5.1-3.4 5.1-6.5 0-3.7-3-6.8-6.8-6.8s-6.8 3-6.8 6.8c0 3.1 2.2 5.8 5.1 6.5v4.9h-23V57.4c2.9-.8 5.1-3.4 5.1-6.5 0-3.7-3-6.8-6.8-6.8s-6.8 3-6.8 6.8c0 3.1 2.2 5.8 5.1 6.5v5.5h-6.7c-.8-2.9-3.4-5.1-6.5-5.1-3.7 0-6.8 3-6.8 6.8 0 3.7 3 6.8 6.8 6.8 3.1 0 5.8-2.2 6.5-5.1h6.7v11.9H16c-6.7 0-12.7-5.3-12.7-11.4 0-6.3 5.2-11.4 11.7-11.4h.7c.6 0 1.1-.2 1.5-.7.3-.5.4-1.1.2-1.6-.5-1.3-.7-2.6-.7-4 0-6.3 5.2-11.4 11.7-11.4 4.2 0 7.9 2.1 10 5.6l.1.1c1.3 6.7 7.2 11.7 14.4 11.7.9 0 1.7-.8 1.7-1.7 0-.9-.8-1.7-1.7-1.7-6.2 0-11.3-4.9-11.3-11 0-1.4.3-2.8.8-4.1 1.8-4 5.9-6.9 10.7-6.9 6.5.2 11.8 5.3 11.8 11.6zm-8.3 28.9c-1.9 0-3.4-1.5-3.4-3.4s1.5-3.4 3.4-3.4 3.4 1.5 3.4 3.4c-.1 1.8-1.6 3.4-3.4 3.4zm-37.9-5.7c0 1.9-1.5 3.4-3.4 3.4s-3.4-1.5-3.4-3.4 1.5-3.4 3.4-3.4c1.8.1 3.4 1.6 3.4 3.4zm11.5-10.3c-1.9 0-3.4-1.5-3.4-3.4s1.5-3.4 3.4-3.4 3.4 1.5 3.4 3.4-1.5 3.4-3.4 3.4z" fill="#1b75d5" fill-rule="nonzero"/></svg>